<svg width="97" height="97" viewBox="0 0 97 97" fill="none" xmlns="http://www.w3.org/2000/svg">
<g id="Group 30">
<g id="Group 19">
<circle id="Ellipse 7" cx="48.5" cy="48.5" r="48.5" transform="rotate(-180 48.5 48.5)" fill="#1F3D4E" fill-opacity="0.44"/>
</g>
<g id="&#240;&#159;&#166;&#134; icon &#34;chevron left&#34;">
<path id="Vector" d="M55.268 65.2674C55.7367 64.7981 56 64.1618 56 63.4983C56 62.8348 55.7367 62.1985 55.268 61.7292L42.0348 48.4849L55.268 35.2406C55.7234 34.7686 55.9754 34.1366 55.9697 33.4805C55.964 32.8244 55.7011 32.1968 55.2375 31.7329C54.774 31.269 54.1469 31.0058 53.4914 31.0001C52.8359 30.9944 52.2043 31.2466 51.7328 31.7024L36.732 46.7158C36.2633 47.1851 36 47.8214 36 48.4849C36 49.1484 36.2633 49.7847 36.732 50.254L51.7328 65.2674C52.2017 65.7365 52.8375 66 53.5004 66C54.1633 66 54.7992 65.7365 55.268 65.2674Z" fill="white"/>
</g>
</g>
</svg>
