<svg width="97" height="97" viewBox="0 0 97 97" fill="none" xmlns="http://www.w3.org/2000/svg">
<g id="Group 29">
<g id="Group 19">
<circle id="Ellipse 7" cx="48.5" cy="48.5" r="48.5" fill="#1F3D4E" fill-opacity="0.44"/>
</g>
<g id="&#240;&#159;&#166;&#134; icon &#34;chevron left&#34;">
<path id="Vector" d="M41.732 32.7326C41.2633 33.2019 41 33.8382 41 34.5017C41 35.1652 41.2633 35.8015 41.732 36.2708L54.9652 49.5151L41.732 62.7594C41.2766 63.2314 41.0246 63.8634 41.0303 64.5195C41.036 65.1756 41.2989 65.8032 41.7625 66.2671C42.226 66.731 42.8531 66.9942 43.5086 66.9999C44.1641 67.0056 44.7957 66.7534 45.2672 66.2976L60.268 51.2842C60.7367 50.8149 61 50.1786 61 49.5151C61 48.8516 60.7367 48.2153 60.268 47.746L45.2672 32.7326C44.7983 32.2635 44.1625 32 43.4996 32C42.8367 32 42.2008 32.2635 41.732 32.7326Z" fill="white"/>
</g>
</g>
</svg>
