<?xml version="1.0" encoding="UTF-8"?>
<svg id="Layer_2" data-name="Layer 2" xmlns="http://www.w3.org/2000/svg" viewBox="0 0 122.6 143.82">
  <defs>
    <style>
      .cls-1, .cls-2 {
        stroke-miterlimit: 10;
      }

      .cls-1, .cls-2, .cls-3 {
        fill: none;
        stroke: #231f20;
      }

      .cls-1, .cls-3 {
        stroke-width: 3px;
      }

      .cls-3 {
        stroke-linecap: round;
        stroke-linejoin: round;
      }
    </style>
  </defs>
  <g id="Layer_2-2">
    <g>
      <path class="cls-1" d="m65.29,62.67c-2.77,7.52-9.76,12.52-17.51,12.52s-14.74-4.99-17.51-12.52v-25.73h35.01v25.73Z"/>
      <path class="cls-1" d="m108.87,107.97h-11.88c-4.97-7.66-9.93-15.32-14.9-22.98l-27.02-.25-7.83,10.35c-2.02-3.37-4.04-6.73-6.06-10.1-9.6.25-19.19.51-28.79.76-3.53,18.85-7.06,37.71-10.59,56.56,8.06-.03,16.13-.06,24.19-.08,7.5-.03,15-.05,22.5-.08,8.67-.03,17.34-.06,26.01-.09v-34.09c2.78,6.14,5.56,12.29,8.33,18.43h21.97"/>
      <path class="cls-1" d="m38.52,73.57v10.8"/>
      <path class="cls-1" d="m58.65,71.57v12.15"/>
      <path class="cls-1" d="m65.29,36.94c.15-3.8.29-7.59.44-11.39,5.78-2.28,7.97-8.55,6.07-12.45-2-4.11-8.85-6.22-14.24-2.41-1.39-5.31-6.11-9.06-11.44-9.18-5.71-.14-10.86,3.9-12.14,9.65-3.94-2.52-8.61-2.34-11.36.16-.2.18-2.38,2.22-2.41,5.37-.04,3.77,3.04,7.46,7.71,8.72.79,3.85,1.58,7.69,2.38,11.54"/>
      <path class="cls-3" d="m26,115.69v26.54"/>
      <path class="cls-1" d="m56.59,84.36c-6.61,8.05-13.23,16.1-19.84,24.16v33.1"/>
      <path class="cls-1" d="m103.21,110.86h10.27c4.15,0,7.52,3.37,7.52,7.52h0c0,4.14-3.36,7.5-7.5,7.5h-10.3v-15.02h0Z"/>
      <g>
        <polyline class="cls-1" points="115.88 97.23 115.88 109.91 108.3 109.91 108.3 97.23"/>
        <path class="cls-1" d="m109.78,97.23h-1.52c-2.86,0-5.18-2.32-5.18-5.18v-7.67c0-2.86,2.32-5.18,5.18-5.18h7.66c2.86,0,5.18,2.32,5.18,5.18v7.67c0,2.86-2.32,5.18-5.18,5.18h-1.52"/>
      </g>
      <g>
        <rect class="cls-2" x="106.62" y="84.6" width="2.39" height="7.15"/>
        <rect class="cls-2" x="110.89" y="84.6" width="2.39" height="7.15"/>
        <rect class="cls-2" x="115.17" y="84.6" width="2.39" height="7.15"/>
      </g>
    </g>
  </g>
</svg>