<?xml version="1.0" encoding="UTF-8"?>
<svg id="Layer_2" data-name="Layer 2" xmlns="http://www.w3.org/2000/svg" viewBox="0 0 138.05 87.62">
  <defs>
    <style>
      .cls-1 {
        fill: none;
        stroke: #231f20;
        stroke-linecap: round;
        stroke-linejoin: round;
        stroke-width: 3px;
      }
    </style>
  </defs>
  <g id="Layer_2-2">
    <g>
      <rect class="cls-1" x="41.91" y="17.94" width="27.07" height="68.18"/>
      <polyline class="cls-1" points="61.37 17.94 61.37 1.5 85.81 1.5 85.81 36.33"/>
      <polyline class="cls-1" points="85.81 86.12 68.98 86.12 61.37 86.12"/>
      <rect class="cls-1" x="68.98" y="36.33" width="29.85" height="49.79"/>
      <rect class="cls-1" x="98.83" y="47.45" width="22.39" height="38.67"/>
      <rect class="cls-1" x="19.82" y="60.56" width="22.09" height="25.56"/>
      <path class="cls-1" d="m7.46,30.78c1.88-.93,4.59-.07,5.91,2.31,2.19-1.66,4.64-1.47,5.55-.3.69.89.37,2.2.26,2.58,2.3.86,3.61,2.59,3.37,4-.05.28-.2.82-.83,1.39-5.49.02-10.99.04-16.48.07-2.8-.51-4.16-2.95-3.63-4.46.39-1.12,1.9-1.93,3.63-1.88.1-1.61.92-3.06,2.21-3.7Z"/>
      <path class="cls-1" d="m115.31,24.26c1.88-.93,4.59-.07,5.91,2.31,2.19-1.66,4.64-1.47,5.55-.3.69.89.37,2.2.26,2.58,2.3.86,3.61,2.59,3.37,4-.05.28-.2.82-.83,1.39-5.49.02-10.99.04-16.48.07-2.8-.51-4.16-2.95-3.63-4.46.39-1.12,1.9-1.93,3.63-1.88.1-1.61.92-3.06,2.21-3.7Z"/>
      <path class="cls-1" d="m42.53,63.55h11.73"/>
      <path class="cls-1" d="m42.53,73.86h11.73"/>
      <path class="cls-1" d="m42.53,53.25h11.73"/>
      <path class="cls-1" d="m42.53,32.65h11.73"/>
      <path class="cls-1" d="m42.53,42.95h11.73"/>
      <g>
        <path class="cls-1" d="m131.37,78.08c2.79,0,4.55-1.69,4.88-2.02.28-1.46.63-4.29-.32-7.63-1.13-3.95-3.44-6.41-4.55-7.45-1.15,1.25-3.1,3.71-4.2,7.38-.98,3.27-.86,6.07-.67,7.71.33.33,2.08,2.01,4.86,2.02Z"/>
        <rect class="cls-1" x="130.15" y="78.72" width="2.63" height="6.46"/>
      </g>
    </g>
  </g>
</svg>