<?xml version="1.0" encoding="UTF-8"?>
<svg id="Layer_2" data-name="Layer 2" xmlns="http://www.w3.org/2000/svg" viewBox="0 0 141.63 139.82">
  <defs>
    <style>
      .cls-1, .cls-2 {
        stroke-miterlimit: 10;
      }

      .cls-1, .cls-2, .cls-3 {
        fill: none;
        stroke: #231f20;
        stroke-width: 3px;
      }

      .cls-1, .cls-3 {
        stroke-linecap: round;
      }

      .cls-4 {
        fill: #231f20;
      }

      .cls-3 {
        stroke-linejoin: round;
      }
    </style>
  </defs>
  <g id="Layer_2-2">
    <g>
      <rect class="cls-2" x="4.83" y="1.5" width="131.98" height="83.11"/>
      <g>
        <line class="cls-3" x1="1.65" y1="127.18" x2="29.89" y2="127.18"/>
        <line class="cls-3" x1="3.16" y1="102.28" x2="44.28" y2="102.28"/>
        <line class="cls-3" x1="3.16" y1="110.58" x2="38.83" y2="110.58"/>
        <line class="cls-3" x1="3.16" y1="118.88" x2="33.63" y2="118.88"/>
        <line class="cls-2" x1="54.67" y1="94.82" x2="31.65" y2="139.12"/>
      </g>
      <rect class="cls-2" x="1.5" y="84.61" width="138.63" height="8.98"/>
      <g>
        <line class="cls-3" x1="139.42" y1="127.18" x2="111.18" y2="127.18"/>
        <line class="cls-3" x1="137.91" y1="102.28" x2="96.79" y2="102.28"/>
        <line class="cls-3" x1="137.91" y1="110.58" x2="102.24" y2="110.58"/>
        <line class="cls-3" x1="137.91" y1="118.88" x2="107.44" y2="118.88"/>
        <line class="cls-2" x1="86.4" y1="94.82" x2="109.42" y2="139.12"/>
      </g>
      <path class="cls-2" d="m4.83,25.61c2.34.99,7.56,2.81,14.12,1.77,8.57-1.35,13.84-6.68,15.48-8.48"/>
      <path class="cls-1" d="m70.66,1.5c-.12,3.32-.24,6.65-.35,9.97-2.09,1.87-10.48,8.95-23.15,9.01-10.27.05-17.55-4.54-20.15-6.36"/>
      <path class="cls-2" d="m136.65,25.61c-2.34.99-7.56,2.81-14.12,1.77-8.57-1.35-13.84-6.68-15.48-8.48"/>
      <path class="cls-1" d="m70.82,1.5c.12,3.32.24,6.65.35,9.97,2.09,1.87,10.48,8.95,23.15,9.01,10.27.05,17.55-4.54,20.15-6.36"/>
      <path class="cls-2" d="m17.18,27.59v55.99"/>
      <path class="cls-2" d="m125.3,28.15v55.99"/>
      <path class="cls-4" d="m69,35.26v12.27c0,.16,0,.31-.04.46-.22,1.69-1.67,2.99-3.42,2.99-1.91,0-3.46-1.55-3.46-3.46s1.55-3.46,3.46-3.46c.47,0,.91.09,1.32.26v-7.68c-3.31,1.22-6.63,2.42-9.94,3.64v12.33c0,1.91-1.55,3.46-3.46,3.46s-3.46-1.55-3.46-3.46,1.55-3.46,3.46-3.46c.54,0,1.05.13,1.5.35v-8.5c0-1.43,0-2.86,0-4.29v-.68c0-.21.06-.56.27-.91.44-.7,1.27-.9,1.53-.97,1.25-.32,5.07-1.81,10.62-4.05.47-.17.98-.06,1.3.28.34.37.29.85.28.92,0,1.32.01,2.63.01,3.95h0Z"/>
      <path class="cls-4" d="m89.82,53.95v12.27c0,.16,0,.31-.04.46-.22,1.69-1.67,2.99-3.42,2.99-1.91,0-3.46-1.55-3.46-3.46s1.55-3.46,3.46-3.46c.47,0,.91.09,1.32.26v-7.68c-3.31,1.22-6.63,2.42-9.94,3.64v12.33c0,1.91-1.55,3.46-3.46,3.46s-3.46-1.55-3.46-3.46,1.55-3.46,3.46-3.46c.54,0,1.05.13,1.5.35v-8.5c0-1.43,0-2.86,0-4.29v-.68c0-.21.06-.56.27-.91.44-.7,1.27-.9,1.53-.97,1.25-.32,5.07-1.81,10.62-4.05.47-.17.98-.06,1.3.28.34.37.29.85.28.92,0,1.32.01,2.63.01,3.95h0Z"/>
    </g>
  </g>
</svg>