<?xml version="1.0" encoding="UTF-8"?>
<svg id="Layer_2" data-name="Layer 2" xmlns="http://www.w3.org/2000/svg" viewBox="0 0 98.5 133.49">
  <defs>
    <style>
      .cls-1, .cls-2, .cls-3, .cls-4 {
        stroke: #231f20;
      }

      .cls-1, .cls-3 {
        fill: #231f20;
      }

      .cls-1, .cls-3, .cls-4 {
        stroke-linecap: round;
        stroke-linejoin: round;
      }

      .cls-2 {
        stroke-miterlimit: 10;
      }

      .cls-2, .cls-3, .cls-4 {
        stroke-width: 3px;
      }

      .cls-2, .cls-4 {
        fill: none;
      }
    </style>
  </defs>
  <g id="Layer_2-2">
    <g>
      <path class="cls-4" d="m81.78,74.67l-27.02-.25-7.83,10.35c-2.02-3.37-4.04-6.73-6.06-10.1-9.6.25-19.19.51-28.79.76-3.53,18.85-7.06,37.71-10.59,56.56,15.57-.05,31.13-.11,46.7-.16,8.67-.03,17.34-.06,26.01-.09v-34.09,34.09l22.79-.12c-5.07-18.98-10.14-37.96-15.21-56.94Z"/>
      <path class="cls-2" d="m63.56,54.17c-2.77,7.52-9.76,12.52-17.51,12.52s-14.74-4.99-17.51-12.52v-25.73h35.01v25.73Z"/>
      <path class="cls-4" d="m19.82,94.37c.05,12.48.09,24.97.14,37.45"/>
      <path class="cls-2" d="m39.89,65.6v9.09"/>
      <path class="cls-2" d="m54.05,64.82c.06,3.43.12,6.87.18,10.3"/>
      <path class="cls-2" d="m12.22,74.42v-19.6c.21-.57,1-2.51,3.12-3.76,2.48-1.46,4.95-.9,5.45-.78v-28.69c.39-1.4,3.93-13.42,16.23-18.3.79-.31,14.56-5.5,25.96,3.37,8.47,6.59,9.67,16.29,9.87,18.17v24.41c1.02.16,3.38.69,5.58,2.59,1.87,1.62,2.74,3.46,3.12,4.41l.24,18.42"/>
      <g>
        <rect class="cls-1" x="30.97" y="92.5" width="11.63" height="3.73"/>
        <rect class="cls-1" x="30.97" y="92.5" width="11.63" height="3.73" transform="translate(-57.58 131.16) rotate(-90)"/>
      </g>
      <path class="cls-4" d="m67.97,91.38c.26-1.07,1.76-7.68-2.99-13.53-1.13-1.39-2.41-2.49-3.76-3.36-2.34-1.53-4.87-2.35-7.06-2.79"/>
      <path class="cls-4" d="m39.89,72.48c-2.17.66-4.02,1.51-5.52,2.36-2.69,1.5-4.3,3-4.76,3.44-8.97,8.58-3.45,19.37-3.19,19.87"/>
      <circle class="cls-3" cx="27.82" cy="101.88" r="3.31"/>
      <path class="cls-4" d="m57.96,103.72c-.39-.6-.94-1.64-1.08-3-.19-1.84.47-3.23,1.37-5.03,1.18-2.38,1.89-3.79,3.57-4.68.36-.19,2.44-1.29,4.72-.42,2.29.87,3.12,3.08,3.34,3.65.7,1.84.33,3.37-.39,6.43-.55,2.32-.88,3.62-2.11,4.53-1.13.83-2.44.9-3.18.87"/>
    </g>
  </g>
</svg>