<?xml version="1.0" encoding="UTF-8"?>
<svg id="Layer_2" data-name="Layer 2" xmlns="http://www.w3.org/2000/svg" viewBox="0 0 124.2 140.11">
  <defs>
    <style>
      .cls-1, .cls-2, .cls-3 {
        stroke-miterlimit: 10;
      }

      .cls-1, .cls-2, .cls-3, .cls-4 {
        fill: none;
        stroke: #231f20;
      }

      .cls-1, .cls-2, .cls-4 {
        stroke-width: 3px;
      }

      .cls-1, .cls-4 {
        stroke-linecap: round;
      }

      .cls-3 {
        stroke-width: 2px;
      }

      .cls-4 {
        stroke-linejoin: round;
      }
    </style>
  </defs>
  <g id="Layer_2-2">
    <g>
      <path class="cls-2" d="m63.55,59.43c-2.07,7.06-8.51,11.96-15.76,12.05-7.54.09-14.29-5.03-16.28-12.42-.41-8.61-.82-17.22-1.22-25.83,2.84-7.39,10-12.23,17.84-12.09,7.6.13,14.42,4.93,17.17,12.09l-1.74,26.2Z"/>
      <path class="cls-2" d="m107.7,107.15c-3.41-.03-6.82-.07-10.23-.1-5.13-8.59-10.25-17.18-15.38-25.77l-27.02-.25-7.83,10.35c-2.02-3.37-4.04-6.73-6.06-10.1-9.6.25-19.19.51-28.79.76-3.53,18.85-7.06,37.71-10.59,56.56,8.06-.03,16.13-.06,24.19-.08l22.5-.08c8.67-.03,17.34-.06,26.01-.09v-34.09c2.89,6,5.78,12.01,8.66,18.01,6.68-.03,13.36-.07,20.04-.1"/>
      <path class="cls-2" d="m38.52,68.42v12.24"/>
      <path class="cls-2" d="m58.65,67.86v12.15"/>
      <path class="cls-4" d="m26,111.99v26.54"/>
      <path class="cls-2" d="m115.89,107.55c2.98,1,5.12,3.81,5.12,7.13,0,2.07-.84,3.94-2.2,5.3s-3.23,2.19-5.3,2.19h-10.3v-15.02h4.99"/>
      <path class="cls-2" d="m44.27,21.48c-1.01-1.22-1.91-2.53-1.75-4.12.51-5.13,11.7-7.74,12.69-7.96,5.67-1.27,7.36.02,12.33-1.49,4.22-1.27,7.26-3.49,9.1-5.07.32,1.75.47,4.12-.35,6.65-1.77,5.46-6.97,8.18-6.47,8.92.28.42,2.01-.25,5.34-1.57,2.07-.82,3.75-1.57,4.9-2.1.16,1.65.3,5.55-2.1,9.01-3.16,4.54-8.52,5.23-12.08,5.69-.8.1-1.61.17-2.43.2"/>
      <path class="cls-2" d="m28.52,40.45c6.19-1.94,12.38-3.88,18.57-5.82,6.65,1.85,13.3,3.7,19.96,5.54v11.92c-6.19,1.75-12.38,3.51-18.57,5.26-6.6-1.72-13.21-3.45-19.81-5.17-.05-3.91-.1-7.82-.15-11.73Z"/>
      <path class="cls-1" d="m48.2,42.57v8.85"/>
      <path class="cls-1" d="m42.65,43.87v6.26"/>
      <path class="cls-1" d="m53.75,43.87v6.26"/>
      <path class="cls-1" d="m37.1,45.43v3.13"/>
      <path class="cls-1" d="m59.3,45.43v3.13"/>
      <g>
        <rect class="cls-3" x="108.2" y="102.42" width="7.7" height="15.59"/>
        <path class="cls-3" d="m117.84,59.36c-1.92-2.65-3.83-5.3-5.75-7.95-1.95,2.65-3.9,5.3-5.85,7.95v36.07h11.59v-36.07Z"/>
        <line class="cls-3" x1="112.05" y1="95.42" x2="112.05" y2="77.47"/>
        <rect class="cls-3" x="100.89" y="95.42" width="22.31" height="6.39" rx="3.19" ry="3.19"/>
      </g>
    </g>
  </g>
</svg>