<?xml version="1.0" encoding="UTF-8"?>
<svg id="Layer_2" data-name="Layer 2" xmlns="http://www.w3.org/2000/svg" viewBox="0 0 137.33 137.02">
  <defs>
    <style>
      .cls-1 {
        stroke-miterlimit: 10;
      }

      .cls-1, .cls-2, .cls-3 {
        fill: none;
        stroke: #231f20;
        stroke-width: 3px;
      }

      .cls-2, .cls-3 {
        stroke-linejoin: round;
      }

      .cls-3 {
        stroke-linecap: round;
      }
    </style>
  </defs>
  <g id="Layer_2-2">
    <g>
      <rect class="cls-1" x="2.75" y="120.28" width="131.84" height="15.25"/>
      <rect class="cls-1" x="9.58" y="109.14" width="118.17" height="11.13"/>
      <polygon class="cls-3" points="68.67 1.5 1.5 39 135.83 39 68.67 1.5"/>
      <g>
        <rect class="cls-1" x="17.99" y="40.33" width="21.4" height="10.67"/>
        <rect class="cls-1" x="17.06" y="97.92" width="23.26" height="11.22"/>
        <path class="cls-1" d="m36.87,97.92h-16.36c.65-15.64,1.31-31.28,1.96-46.93h12.02c.79,15.64,1.58,31.28,2.38,46.93Z"/>
      </g>
      <g>
        <rect class="cls-1" x="98.09" y="39" width="21.4" height="10.88"/>
        <rect class="cls-1" x="97.16" y="97.71" width="23.26" height="11.44"/>
        <path class="cls-1" d="m116.97,97.71h-16.36c.65-15.94,1.31-31.89,1.96-47.83h12.02c.79,15.94,1.58,31.89,2.38,47.83Z"/>
      </g>
      <g>
        <g>
          <path class="cls-2" d="m68.21,59.79v31.44c-1.69-1.52-5.26-4.33-10.62-5.6-3.91-.92-7.24-.66-9.3-.33v-31.44c1.68-.47,5.82-1.38,10.78.09,4.99,1.48,7.99,4.54,9.14,5.84Z"/>
          <path class="cls-2" d="m48.3,59.62h-5.76v33.93c5.37-2.17,9.94-2.6,12.76-2.66,2.15-.04,5.15-.07,8.81,1.15,2.17.72,3.86,1.65,5.02,2.39"/>
        </g>
        <path class="cls-2" d="m69.12,59.79v31.44c1.69-1.52,5.26-4.33,10.62-5.6,3.91-.92,7.24-.66,9.3-.33v-31.44c-1.68-.47-5.82-1.38-10.78.09-4.99,1.48-7.99,4.54-9.14,5.84Z"/>
        <path class="cls-2" d="m89.04,59.62h5.76v33.93c-5.37-2.17-9.94-2.6-12.76-2.66-4.55-.08-7.92.9-8.81,1.15-2.37.69-4.29,1.57-5.67,2.32"/>
      </g>
    </g>
  </g>
</svg>