<?xml version="1.0" encoding="UTF-8"?>
<svg id="Layer_2" data-name="Layer 2" xmlns="http://www.w3.org/2000/svg" viewBox="0 0 142.1 133.49">
  <defs>
    <style>
      .cls-1 {
        stroke-miterlimit: 10;
      }

      .cls-1, .cls-2 {
        fill: none;
        stroke: #231f20;
        stroke-width: 3px;
      }

      .cls-2 {
        stroke-linecap: round;
        stroke-linejoin: round;
      }
    </style>
  </defs>
  <g id="Layer_2-2" data-name="Layer 2">
    <g>
      <path class="cls-2" d="m108.56,97.65h-11.88c-4.97-7.66-9.93-15.32-14.9-22.98l-27.02-.25-7.83,10.35c-2.02-3.37-4.04-6.73-6.06-10.1-9.6.25-19.19.51-28.79.76-3.53,18.85-7.06,37.71-10.59,56.56,15.57-.05,31.13-.11,46.7-.16,8.67-.03,17.34-.06,26.01-.09v-34.09l8.33,18.43h21.97"/>
      <circle class="cls-1" cx="118.76" cy="116.11" r="12.91"/>
      <path class="cls-1" d="m63.56,54.17c-2.77,7.52-9.76,12.52-17.51,12.52s-14.74-4.99-17.51-12.52v-25.73h35.01v25.73Z"/>
      <path class="cls-1" d="m46.94,84.77c.02,15.68.05,31.37.07,47.05"/>
      <path class="cls-2" d="m19.82,94.37c.05,12.48.09,24.97.14,37.45"/>
      <path class="cls-1" d="m39.89,66.77v7.92"/>
      <path class="cls-1" d="m54.05,64.82c.06,3.43.12,6.87.18,10.3"/>
      <path class="cls-1" d="m12.22,74.42v-19.6c.21-.57,1-2.51,3.12-3.76,2.48-1.46,4.95-.9,5.45-.78v-28.69c.39-1.4,3.93-13.42,16.23-18.3.79-.31,14.56-5.5,25.96,3.37,8.47,6.59,9.67,16.29,9.87,18.17v24.41c1.02.16,3.38.69,5.58,2.59,1.87,1.62,2.74,3.46,3.12,4.41l.24,18.42"/>
      <path class="cls-1" d="m115.36,91.01h-4.14c-.64,1.04-1.52,2.81-1.73,5.1-.31,3.32.94,5.88,1.6,7.02,1.99.06,3.99.12,5.98.18,1.4.05,2.8.09,4.2.13,2.34.07,4.67.15,7,.22v-12.65h-6.12"/>
      <rect class="cls-1" x="115.36" y="87.86" width="6.79" height="15.34"/>
      <rect class="cls-1" x="110.65" y="82.39" width="16.22" height="4.77" rx="2.38" ry="2.38"/>
      <path class="cls-1" d="m29.91,44.19c4,.94,8.01,1.87,12.01,2.81.81-1.62,1.62-3.24,2.43-4.85,1.45.04,2.9.09,4.34.13.6,1.36,1.19,2.73,1.79,4.09,4.36-.72,8.72-1.45,13.08-2.17"/>
      <circle class="cls-2" cx="125.66" cy="67.23" r="3.5"/>
      <circle class="cls-2" cx="111.45" cy="57.09" r="5.61"/>
      <circle class="cls-2" cx="134.44" cy="48.3" r="6.16"/>
    </g>
  </g>
</svg>